<svg width="51" height="53" viewBox="0 0 51 53" fill="none" xmlns="http://www.w3.org/2000/svg">
    <path d="M1.27689 3.64083C1.87 1.37331 3.93267 0.00295693 6.10111 0.00295693C7.43844 0.00295693 8.65489 0.506429 9.58044 1.32788C10.6009 0.470139 11.8903 0 13.2222 0C14.5542 0 15.8435 0.470139 16.864 1.32788C17.8216 0.47229 19.0604 0.000558329 20.3433 0.00295693C22.5118 0.00295693 24.5744 1.37331 25.1676 3.64083C25.7342 5.80613 26.4444 9.29637 26.4444 13.2522C26.4443 15.4613 25.893 17.6352 24.8407 19.5764C23.7883 21.5175 22.2683 23.1641 20.4189 24.3665C19.3951 25.0365 18.8889 25.8996 18.8889 26.6378V28.1368C18.8889 28.2226 18.8939 28.3059 18.904 28.3867C19.0324 29.3255 19.4971 32.8119 19.9316 36.4271C20.3584 39.9741 20.7778 43.8429 20.7778 45.429C20.7778 47.437 19.9817 49.3627 18.5648 50.7825C17.1479 52.2023 15.2261 53 13.2222 53C11.2184 53 9.29658 52.2023 7.87964 50.7825C6.4627 49.3627 5.66667 47.437 5.66667 45.429C5.66667 43.8391 6.086 39.9779 6.51289 36.4271C6.94733 32.8119 7.412 29.3255 7.54044 28.3867L7.55556 28.1368V26.6378C7.55556 25.8996 7.04933 25.0365 6.02556 24.3665C4.17616 23.1641 2.65614 21.5175 1.60377 19.5764C0.551403 17.6352 9.42863e-05 15.4613 0 13.2522C0 9.29637 0.710222 5.80613 1.27689 3.64083ZM18.8889 15.145C18.8889 15.647 18.6899 16.1284 18.3356 16.4833C17.9814 16.8383 17.501 17.0377 17 17.0377C16.499 17.0377 16.0186 16.8383 15.6644 16.4833C15.3101 16.1284 15.1111 15.647 15.1111 15.145V5.68121C15.1111 5.17922 14.9121 4.69779 14.5579 4.34283C14.2036 3.98787 13.7232 3.78846 13.2222 3.78846C12.7213 3.78846 12.2408 3.98787 11.8866 4.34283C11.5323 4.69779 11.3333 5.17922 11.3333 5.68121V15.145C11.3333 15.647 11.1343 16.1284 10.7801 16.4833C10.4259 16.8383 9.94541 17.0377 9.44444 17.0377C8.94348 17.0377 8.46303 16.8383 8.1088 16.4833C7.75456 16.1284 7.55556 15.647 7.55556 15.145V5.24588C7.55556 4.85935 7.40232 4.48865 7.12956 4.21533C6.8568 3.94201 6.48685 3.78846 6.10111 3.78846C5.474 3.78846 5.04333 4.16322 4.93 4.60234C4.18552 7.42582 3.79841 10.3319 3.77778 13.2522C3.7776 14.8309 4.17154 16.3846 4.92374 17.7717C5.67594 19.1588 6.76249 20.3354 8.08444 21.1942C9.74289 22.2731 11.3333 24.1696 11.3333 26.6378V28.1368C11.3333 28.3892 11.317 28.6416 11.2842 28.8939C11.1558 29.8251 10.6949 33.2889 10.2642 36.8813C9.826 40.5343 9.44444 44.1268 9.44444 45.429C9.44444 46.433 9.84246 47.3958 10.5509 48.1057C11.2594 48.8157 12.2203 49.2145 13.2222 49.2145C14.2242 49.2145 15.185 48.8157 15.8935 48.1057C16.602 47.3958 17 46.433 17 45.429C17 44.1268 16.6222 40.5343 16.1802 36.8775C15.7496 33.2889 15.2887 29.8251 15.1602 28.8901C15.1315 28.6413 15.1151 28.3911 15.1111 28.1406V26.6415C15.1111 24.1734 16.7016 22.2769 18.36 21.198C19.6825 20.3388 20.7694 19.1617 21.5216 17.7738C22.2738 16.386 22.6675 14.8316 22.6667 13.2522C22.6667 9.72413 22.032 6.57459 21.5144 4.60234C21.4011 4.16701 20.9667 3.78846 20.3433 3.78846C19.9576 3.78846 19.5876 3.94201 19.3149 4.21533C19.0421 4.48865 18.8889 4.85935 18.8889 5.24588V15.145ZM30.2222 17.0377C30.2222 12.5198 32.0133 8.18696 35.2014 4.99232C38.3895 1.79769 42.7135 0.00295693 47.2222 0.00295693C47.7232 0.00295693 48.2036 0.202371 48.5579 0.557331C48.9121 0.912291 49.1111 1.39372 49.1111 1.89571V24.5065L49.1829 25.1766C49.4834 28.0018 49.7718 30.8283 50.048 33.6561C50.5127 38.4107 51 43.7407 51 45.429C51 47.437 50.204 49.3627 48.787 50.7825C47.3701 52.2023 45.4483 53 43.4444 53C41.4406 53 39.5188 52.2023 38.1019 50.7825C36.6849 49.3627 35.8889 47.437 35.8889 45.429C35.8889 43.7407 36.3762 38.4107 36.8409 33.6561C37.0789 31.2447 37.3169 28.9356 37.4944 27.2245L37.57 26.5015H34C32.9981 26.5015 32.0372 26.1026 31.3287 25.3927C30.6202 24.6828 30.2222 23.72 30.2222 22.716V17.0377ZM41.5442 24.8094L41.4649 25.574C41.1696 28.3909 40.8825 31.2086 40.6036 34.0271C40.1238 38.899 39.6667 43.9829 39.6667 45.429C39.6667 46.433 40.0647 47.3958 40.7732 48.1057C41.4816 48.8157 42.4425 49.2145 43.4444 49.2145C44.4464 49.2145 45.4073 48.8157 46.1157 48.1057C46.8242 47.3958 47.2222 46.433 47.2222 45.429C47.2222 43.9791 46.7651 38.899 46.2853 34.0271C46.0082 31.2084 45.7211 28.3907 45.424 25.574L45.3447 24.8131L45.3333 24.6087V3.92095C42.1859 4.37618 39.3076 5.95284 37.226 8.36193C35.1445 10.771 33.9992 13.8511 34 17.0377V22.716H39.6667C39.9315 22.7161 40.1935 22.772 40.4354 22.8801C40.6773 22.9882 40.8938 23.1461 41.0709 23.3435C41.2479 23.5409 41.3816 23.7735 41.4631 24.026C41.5447 24.2785 41.5723 24.5454 41.5442 24.8094Z" fill="#3F3E3D"/>
</svg>
