<svg width="60" height="42" viewBox="0 0 60 42" fill="none" xmlns="http://www.w3.org/2000/svg">
    <path d="M42 18V0H54C55.65 0 57.063 0.587999 58.239 1.764C59.415 2.94 60.002 4.352 60 6V18H42ZM6 42C4.35 42 2.938 41.413 1.764 40.239C0.59 39.065 0.002 37.652 0 36V6C0 4.35 0.588 2.938 1.764 1.764C2.94 0.589999 4.352 0.002 6 0H36V42H6ZM18 25.5C19.25 25.5 20.313 25.063 21.189 24.189C22.065 23.315 22.502 22.252 22.5 21C22.498 19.748 22.061 18.686 21.189 17.814C20.317 16.942 19.254 16.504 18 16.5C16.746 16.496 15.684 16.934 14.814 17.814C13.944 18.694 13.506 19.756 13.5 21C13.494 22.244 13.932 23.307 14.814 24.189C15.696 25.071 16.758 25.508 18 25.5ZM42 42V24H60V36C60 37.65 59.413 39.063 58.239 40.239C57.065 41.415 55.652 42.002 54 42H42Z" fill="#3F3E3D"/>
</svg>

