<svg width="77" height="67" viewBox="0 0 77 67" fill="none" xmlns="http://www.w3.org/2000/svg">
    <path d="M55.3161 64.5792V45.7635C55.3161 44.1727 55.3161 43.3791 55.1741 42.7188C54.886 41.3909 54.174 40.1711 53.1283 39.2138C52.0826 38.2565 50.7502 37.6047 49.2997 37.3409C48.5785 37.2109 45.9739 37.2109 45.9739 37.2109C44.1055 54.3161 29.158 57.7371 29.158 57.7371C29.158 57.7371 14.2106 54.3161 12.3422 37.2109C12.3422 37.2109 9.73757 37.2109 9.01635 37.3409C7.56587 37.6047 6.23346 38.2565 5.18778 39.2138C4.14209 40.1711 3.43013 41.3909 3.142 42.7188C3 43.3791 3 44.1727 3 45.7635V64.5792" stroke="#3F3E3D" stroke-width="4.5" stroke-linecap="round" stroke-linejoin="round"/>
    <path d="M29.1579 38.9208L36.6316 35.4998V42.3419L29.1579 38.9208ZM29.1579 38.9208L21.6841 35.4998V42.3419L29.1579 38.9208ZM74.0002 64.5785V45.7629C74.0002 44.1721 74.0002 43.3784 73.8582 42.7182C73.5701 41.3903 72.8581 40.1705 71.8124 39.2132C70.7668 38.2559 69.4343 37.6041 67.9839 37.3403C67.2626 37.2103 66.3957 37.2103 64.6581 37.2103M47.8422 3.59526C49.0418 3.20397 50.3055 3.00267 51.579 3C57.771 3 62.7896 7.69023 62.7896 13.4786V16.472C62.7896 22.2536 57.771 26.9472 51.579 26.9472C50.3055 26.9445 49.0418 26.7432 47.8422 26.352M40.3684 16.472V13.4786C40.3684 7.68681 35.3498 3 29.1579 3C22.9659 3 17.9473 7.69023 17.9473 13.4786V16.472C17.9473 22.2536 22.9659 26.9472 29.1579 26.9472C35.3498 26.9472 40.3684 22.257 40.3684 16.472Z" stroke="#3F3E3D" stroke-width="4.5" stroke-linecap="round" stroke-linejoin="round"/>
</svg>
