<svg width="73" height="75" viewBox="0 0 73 75" fill="none" xmlns="http://www.w3.org/2000/svg">
    <path d="M23.5159 0L20.869 3.53168L23.5159 7.06306L26.1676 3.53137L23.5159 0ZM55.4204 1.1806L51.9462 5.80505L55.4204 10.4342L58.8894 5.80505L55.4204 1.1806ZM35.1354 4.05631L31.666 8.68076L35.1351 13.3052L38.6093 8.68076L35.1354 4.05631ZM5.40553 4.58062L2.75859 8.11199L5.40553 11.6437L8.05746 8.11199L5.40553 4.58062ZM66.3049 8.44231L64.1883 13.0134L59.6049 15.1265L64.1885 17.327L66.3049 21.8106L68.4167 17.2395L73 15.1265L68.5041 13.0136L66.3049 8.44231ZM19.4677 10.4973L16.8109 16.2437L11.0549 18.8961L16.8112 21.6598L19.4678 27.2947L22.1194 21.5482L27.8758 18.8959L22.2316 16.2437L19.4677 10.4973ZM51.9463 11.9302L48.4721 16.5546L51.9463 21.1837L55.4154 16.5546L51.9463 11.9302ZM36.3515 21.7427L33.471 25.5803L36.3515 29.4226L39.232 25.58L36.3515 21.7427ZM52.3938 26.5713L50.214 31.2929L45.4845 33.4691L50.214 35.7375L52.3938 40.3719L54.5787 35.6503L59.3081 33.4691L54.6708 31.2929L52.3938 26.5713ZM10.2909 27.6542L7.63925 31.1812L10.2909 34.7126L12.9378 31.1809L10.2909 27.6542ZM24.9464 31.8612L22.2994 35.3928L24.9464 38.9241L27.5983 35.3928L24.9464 31.8612ZM36.2593 35.6015C35.0646 35.6185 34.0334 36.2751 32.8826 37.1606C25.7148 42.6793 16.6392 50.6884 16.5291 55.1631C15.2466 55.3155 14.1057 55.9814 14.1057 57.1548C14.1057 58.9048 16.5011 59.5326 18.2513 59.059C18.229 59.1693 18.2176 59.2816 18.2174 59.3941C18.2174 61.8931 23.1064 62.1073 24.0173 60.0885C29.4046 61.5264 36.0123 61.7681 42.0497 61.0456C42.4159 63.3695 47.3368 63.4041 47.9178 61.2057C49.5133 62.3751 52.4192 62.4435 54.1799 61.4196C55.842 62.4722 59.2259 61.9548 59.2259 59.8942C59.2259 59.5891 59.1535 59.3191 59.0215 59.0831C59.9339 58.6883 60.5883 57.9966 60.5883 57.0039C60.5883 54.7761 57.296 54.0932 55.1823 54.8908C54.476 50.0451 45.8868 41.7163 39.4759 36.9078C38.2158 35.9627 37.189 35.5878 36.2597 35.6011L36.2593 35.6015ZM8.93843 53.0743C7.26462 53.0778 5.59082 53.8546 5.59082 55.3915C5.59082 58.4651 12.286 58.4071 12.286 55.3915C12.286 53.8404 10.6118 53.0709 8.93843 53.0743ZM69.7304 55.1C68.2439 55.1065 66.7574 55.7864 66.7574 57.1254C66.7574 59.8815 72.7034 59.8563 72.7034 57.1254C72.7034 55.7602 71.2169 55.0935 69.7304 55.1ZM2.97283 57.5436C1.48634 57.5464 0 58.2328 0 59.5981C0 62.3292 5.94582 62.277 5.94582 59.5981C5.94582 58.2205 4.45933 57.5405 2.97283 57.5436ZM67.0788 61.1962C65.405 61.1998 63.7312 61.9765 63.7312 63.5134C63.7312 66.5873 70.4214 66.529 70.4214 63.5134C70.4214 61.9621 68.7526 61.1928 67.0788 61.1962ZM24.4404 62.2212C23.5061 62.2232 22.5729 62.4956 22.0077 63.0373C20.2585 62.2781 17.356 62.8685 17.356 64.7764C17.356 67.0002 21.298 67.3739 22.762 65.9907C24.5112 66.7368 27.4137 66.1477 27.4137 64.2762C27.4137 62.8983 25.9268 62.2181 24.4404 62.2212ZM38.0207 62.469C36.5343 62.4755 35.0478 63.1553 35.0478 64.4944C35.0478 67.25 40.9937 67.2256 40.9937 64.4944C40.9937 63.1293 39.5072 62.4624 38.0207 62.469ZM8.12582 63.9263C6.63932 63.9294 5.15283 64.6157 5.15283 65.9812C5.15283 68.7118 11.0988 68.6595 11.0988 65.9812C11.0988 64.6032 9.61231 63.9232 8.12582 63.9263ZM54.6029 65.9762C53.1164 65.9825 51.6299 66.6674 51.6299 68.0067C51.6299 69.5414 53.4747 70.2144 55.109 70.0372C54.9973 70.2785 54.9386 70.5477 54.9386 70.8435C54.9386 73.7687 60.6258 74.0335 61.7506 71.7031C63.3564 71.8326 65.1177 71.1497 65.1177 69.6631C65.1177 67.3757 60.9449 67.0392 59.5903 68.5656C58.9168 68.4242 58.1788 68.4164 57.4934 68.5361C57.5471 68.3723 57.5759 68.1972 57.5759 68.0068C57.5759 66.6414 56.0894 65.9699 54.6029 65.9762ZM31.1065 66.5203C29.4018 66.5278 27.7005 67.3115 27.7005 68.847C27.7005 72.0072 34.5171 71.9786 34.5171 68.847C34.5171 67.2817 32.8111 66.5127 31.1065 66.5203ZM46.7692 69.2696C44.8152 69.2737 42.862 70.1805 42.862 71.9753C42.862 75.5645 50.6763 75.4961 50.6763 71.9753C50.6763 70.1644 48.723 69.2656 46.7692 69.2696ZM22.9467 70.3142C21.2421 70.3215 19.5357 71.105 19.5357 72.6408C19.5357 75.8006 26.3527 75.7722 26.3527 72.6408C26.3527 71.0751 24.6513 70.3068 22.9467 70.3142Z" fill="#3F3E3D"/>
</svg>
