<svg width="69" height="62" viewBox="0 0 69 62" fill="none" xmlns="http://www.w3.org/2000/svg">
    <path d="M27.8889 41.8895L37.2222 45.0007C37.2222 45.0007 60.5556 40.334 63.6667 40.334C66.7778 40.334 66.7778 43.4451 63.6667 46.5562C60.5556 49.6673 49.6667 59.0006 40.3333 59.0006C31 59.0006 24.7778 54.334 18.5556 54.334H3" stroke="#3F3E3D" stroke-width="5" stroke-linecap="round" stroke-linejoin="round"/>
    <path d="M3 35.6667C6.11111 32.5556 12.3333 27.8889 18.5556 27.8889C24.7778 27.8889 39.5556 34.1111 41.8889 37.2222C44.2222 40.3333 37.2222 45 37.2222 45M21.6667 18.5556V6.11111C21.6667 5.28599 21.9944 4.49467 22.5779 3.91122C23.1613 3.32778 23.9527 3 24.7778 3H62.1111C62.9362 3 63.7276 3.32778 64.311 3.91122C64.8944 4.49467 65.2222 5.28599 65.2222 6.11111V31" stroke="#3F3E3D" stroke-width="5" stroke-linecap="round" stroke-linejoin="round"/>
    <path d="M35.666 3H51.2216V17H35.666V3Z" stroke="#3F3E3D" stroke-width="5" stroke-linecap="round" stroke-linejoin="round"/>
</svg>
